<?xml version="1.0" encoding="UTF-8"?>
<svg version="1.1" viewBox="0 0 2000 2000" width="500" height="500" xmlns="http://www.w3.org/2000/svg">
<path transform="translate(0)" d="m0 0h2e3v2e3h-2e3z" fill="#FFFFFE"/>
<path transform="translate(446,972)" d="m0 0h5l6 19 6 31 1 8v38l-3 23-5 23-10 30-13 28-14 24-16 23-14 17-7 8-25 25-14 11-12 9-17 11-18 10-21 10-27 9-22 5-23 3h-24l-13-3-10-5-9-8-7-14-3-10-1-7v-16l2-14 6-21 8-18 13-22 13-19 13-16 9-11 9-9 7-8 23-23 8-7 12-11 10-8 16-13 12-9 11-8 23-16 23-15 24-15 29-17 18-10z" fill="#FFFFFE"/>
<path transform="translate(1153,813)" d="m0 0h12l16 3 12 5 11 8 9 9 9 11 16 21 12 16 9 11 14 15 11 7 11 4 5 1h30l22-4 25-7 28-10 29-12 26-12 17-8 19-10 25-14 14-8h7l5 5 4 6v6l-6 7-20 12-25 14-15 8-28 13-25 11-24 9-30 10-25 6-18 3-10 1h-20l-19-3-14-5-11-7-12-11-8-8-9-11-12-15-14-19-14-17-9-8-12-6-5-1h-14l-17 4-20 8-21 10-23 13-21 13-21 12-27 14-16 8-24 10-23 6-8 1h-10l-12-3-8-7-3-7-2-12-1-13-1-27-2-12-1-4h-11l-14 4-16 7-19 10-26 16-18 12-17 12-14 10-18 12-8 4h-6l-5-4-1-7 10-62-49 14-41 13-38 13-37 14-36 15-27 12-26 12 3 11 4 14 4 18 3 21 1 14v20l-3 31-5 25-7 25-10 25-9 19-9 16-8 13-8 12-12 16-24 28-10 10-8 7-13 11-19 14-22 14-27 14-23 9-23 7-26 5-18 2h-30l-15-3-11-4-12-7-10-10-6-10-5-12-4-20v-25l3-18 5-17 9-21 11-20 10-15 8-11 12-15 9-11 9-9 7-8 23-23 8-7 14-13 10-8 13-11 12-9 13-10 17-12 23-16 14-9 19-12 21-13 35-20 23-12-1-5-11-19-12-17-11-14-14-15-19-19-3-6 2-6 8-7 7-1 8 6 25 25 9 11 14 19 13 21 8 15 19-9 34-16 33-14 33-13 39-14 36-12 44-13 30-8h8l14 4 3 4-1 12-7 35 1 3 19-14 33-22 22-13 22-11 20-7 13-3h15l12 3 8 6 3 5 2 12 3 50 2 8 1 1h8l16-3 16-5 24-11 22-12 26-15 24-14 28-15 24-12 21-8zm-707 159-16 9-27 15-20 12-23 14-20 13-19 13-14 10-11 8-17 13-13 11-10 8-12 11-13 12-21 21-7 8-11 12-10 13-13 18-9 14-8 14-9 21-5 18-2 14v16l3 14 5 12 6 8 9 7 14 5 6 1h24l23-3 22-5 27-9 29-14 18-11 16-11 16-13 10-9 24-24 11-14 9-12 14-21 14-25 12-27 8-25 5-23 3-23v-38l-4-25-5-21-4-12z" fill="#D97C6B"/>
<path transform="translate(1518,1094)" d="m0 0h26l16 4 10 6 5 7-1 9-9 8-10 4-16 3h-21z" fill="#FFFFFE"/>
<path transform="translate(1161,1089)" d="m0 0h34l9 2 8 5 4 5v6l-5 5-5 3h-2l9 9 5 9 3 5-5 1-6-3-5-12-5-4-15-1-21-1v21h-7v-49z" fill="#6E4441"/>
<path transform="translate(445,650)" d="m0 0 5 1 5 10v8l-5 5-17 5-37 8h-8l-6-8-1-10 3-5 14-4 36-8z" fill="#D97C6B"/>
<path transform="translate(1448,1088)" d="m0 0 7 6 10 14 12 16 8 11 1 5-5-1-8-9-2-3h-45l-9 12-5 1-2-2 6-9 16-21 9-12z" fill="#734743"/>
<path transform="translate(1375,1088)" d="m0 0 3 3v48h-7v-41l1-2-19 14-15 10-5-1-15-11-14-10-1 3v38h-7v-50l6 1 19 13 11 8 4 3 5-2 10-8z" fill="#6C4440"/>
<path transform="translate(1799,1088)" d="m0 0 6 2 16 11 17 12 16 11 9 7 1-41h7v50l-5-1-16-10-15-11-19-13-11-8 1 6v35l-1 1h-6l-1-1z" fill="#714642"/>
<path transform="translate(1516,1089)" d="m0 0h25l17 3 16 8 6 7 2 5-1 8-8 9-12 6-11 3-20 2h-9l-10-1v-49zm2 5v41h21l16-3 10-4 9-8 1-9-5-7-10-6-16-4z" fill="#6F4541"/>
<path transform="translate(717,1088)" d="m0 0 10 5 15 11 12 8 17 12 10 7v-41h7v50l-5-1-14-9-20-14-17-12-9-6v41h-7v-50z" fill="#6F4541"/>
<path transform="translate(828,1088)" d="m0 0 10 5 43 30 12 9-1-6v-35l1-1h6l1 49-3 1-11-6-14-10-16-11-17-12-5-3v41h-7v-50z" fill="#6E4441"/>
<path transform="translate(1713,1089)" d="m0 0h56l-1 5h-49v18h45v4h-45v19h50v4l-47 1-10-1v-49z" fill="#6C4340"/>
<path transform="translate(1075,1089)" d="m0 0h55l-1 5-49 1v17h44v4h-45l1 18 50 1-1 4h-57v-49z" fill="#734742"/>
<path transform="translate(631,1089)" d="m0 0h56l-2 5h-49v18h44v4h-44v19h50v4l-42 1-15-1v-49z" fill="#704642"/>
<path transform="translate(1640,1088)" d="m0 0h10l19 3 10 4 1 3-2 1-19-5-8-1h-12l-13 3-6 4v4l11 4 34 5 13 4 5 4 1 6-8 7-11 4-5 1h-24l-21-5-6-4v-2h6l12 4 10 2h22l12-4 6-4-1-4-12-4-35-5-10-4-5-3-2-5 6-7 10-4z" fill="#724742"/>
<path transform="translate(1164,1094)" d="m0 0h33l8 3 5 5-1 5-5 4-4 2-9 1h-26l-1-1z" fill="#FFFFFE"/>
<path transform="translate(988,1089)" d="m0 0h54l-1 4-1 1-48 1v17h44v4l-44 1-1 22h-7v-49z" fill="#7F4D47"/>
<path transform="translate(593,1089)" d="m0 0h5l1 1v34l-3 6-10 6-11 3h-17l-12-3-9-5-4-6 3-2 6 4 10 5 7 2h14l13-4 5-5 1-35z" fill="#714642"/>
<path transform="translate(1448,1096)" d="m0 0 4 4 12 16 4 7h-40l6-8 10-13z" fill="#FFFFFE"/>
<path transform="translate(940,1089)" d="m0 0h5l1 1v49h-7v-49z" fill="#69423F"/>
</svg>
